<?xml version="1.0" encoding="UTF-8"?>
<svg width="800px" height="800px" viewBox="0 0 800 800" version="1.1" xmlns="http://www.w3.org/2000/svg">
    <g stroke="none" stroke-width="1" fill="none" fill-rule="evenodd">
        <circle fill="#4339F2" cx="400" cy="400" r="400"/>
        <path d="M400,275 C489.411255,275 562,347.588745 562,437 C562,526.411255 489.411255,599 400,599 C310.588745,599 238,526.411255 238,437 C238,347.588745 310.588745,275 400,275 Z M346,437 C346,467.375661 370.624339,492 401,492 C431.375661,492 456,467.375661 456,437 C456,406.624339 431.375661,382 401,382 C370.624339,382 346,406.624339 346,437 Z" fill="#FFFFFF" fill-rule="nonzero"/>
        <path d="M400,201 C442.524613,201 478.299413,229.103994 487.905691,267.521883 C491.484246,266.514356 495.190979,266 499,266 C525.509668,266 547,287.490332 547,314 C547,340.509668 525.509668,362 499,362 C495.190979,362 491.484246,361.485644 487.905691,360.478117 C478.299413,398.896006 442.524613,427 400,427 C357.475387,427 321.700587,398.896006 312.094309,360.478117 C308.515754,361.485644 304.809021,362 301,362 C274.490332,362 253,340.509668 253,314 C253,287.490332 274.490332,266 301,266 C304.809021,266 308.515754,266.514356 312.094309,267.521883 C321.700587,229.103994 357.475387,201 400,201 Z" fill="#FFFFFF"/>
    </g>
</svg>